<?xml version="1.0" encoding="UTF-8" standalone="no"?>
<!-- Created with Inkscape (http://www.inkscape.org/) -->

<svg
   xmlns:dc="http://purl.org/dc/elements/1.1/"
   xmlns:cc="http://creativecommons.org/ns#"
   xmlns:rdf="http://www.w3.org/1999/02/22-rdf-syntax-ns#"
   xmlns:svg="http://www.w3.org/2000/svg"
   xmlns="http://www.w3.org/2000/svg"
   version="1.1"
   width="24.000027"
   height="24.00882"
   id="svg5716">
  <defs
     id="defs5718" />
  <metadata
     id="metadata5721">
    <rdf:RDF>
      <cc:Work
         rdf:about="">
        <dc:format>image/svg+xml</dc:format>
        <dc:type
           rdf:resource="http://purl.org/dc/dcmitype/StillImage" />
        <dc:title></dc:title>
      </cc:Work>
    </rdf:RDF>
  </metadata>
  <g
     transform="translate(90.999943,69.397894)"
     id="layer1">
    <path
       d="m -72.64364,-66.395681 c -1.1557,0.0646 -1.9974,1.02587 -2.7212,1.83132 -0.6993,0.90186 -1.4122,1.88676 -1.6091,3.03509 0,0.3433 0.4257,0.5101 0.6119,0.7769 0.7055,0.6345 1.4319,1.5995 0.9834,2.5867 -0.632,1.2542 -1.825,2.086 -2.7458,3.115 -0.7457,0.7484 -1.7004,1.7663 -2.8646,1.3348 -0.8635,-0.3279 -1.3717,-1.1246 -2.045,-1.6676 -0.9315,0.072 -1.7534,0.6504 -2.5326,1.1278 -0.9985,0.7242 -2.0328,1.6138 -2.3951,2.8368 -0.213,0.9735 0.8095,1.4962 1.4418,2.0086 1.5796,1.1442 3.7016,1.2955 5.5068,0.6403 2.9077,-1.0327 5.2507,-3.1818 7.3141,-5.4078 1.7636,-2.0056 3.4477,-4.3573 3.6736,-7.1018 0.1548,-1.93027 -0.8288,-3.84385 -2.3161,-5.02982 l -0.1495,-0.0591 -0.1527,-0.0272 z"
       id="path44084"
       style="fill:#808080;enable-background:new" />
  </g>
</svg>
